<?xml version="1.0" encoding="UTF-8" standalone="no"?>
<!-- Created with Inkscape (http://www.inkscape.org/) -->

<svg
   width="1.5733783in"
   height="1.457111in"
   viewBox="0 0 39.963809 37.010619"
   version="1.1"
   id="svg2769"
   inkscape:version="1.1.1 (c3084ef, 2021-09-22)"
   sodipodi:docname="spruce_dp_digibox.svg"
   xmlns:inkscape="http://www.inkscape.org/namespaces/inkscape"
   xmlns:sodipodi="http://sodipodi.sourceforge.net/DTD/sodipodi-0.dtd"
   xmlns="http://www.w3.org/2000/svg"
   xmlns:svg="http://www.w3.org/2000/svg">
  <sodipodi:namedview
     id="namedview2771"
     pagecolor="#ffffff"
     bordercolor="#666666"
     borderopacity="1.0"
     inkscape:pageshadow="2"
     inkscape:pageopacity="0.0"
     inkscape:pagecheckerboard="0"
     inkscape:document-units="mm"
     showgrid="false"
     inkscape:zoom="0.77771465"
     inkscape:cx="65.576751"
     inkscape:cy="105.43713"
     inkscape:window-width="2048"
     inkscape:window-height="1124"
     inkscape:window-x="0"
     inkscape:window-y="28"
     inkscape:window-maximized="0"
     inkscape:current-layer="layer1"
     units="in"
     fit-margin-top="0"
     fit-margin-left="0"
     fit-margin-right="0"
     fit-margin-bottom="0" />
  <defs
     id="defs2766" />
  <g
     inkscape:label="Layer 1"
     inkscape:groupmode="layer"
     id="layer1"
     transform="translate(-48.059334,-120.29882)">
    <g
       id="g1191"
       transform="matrix(0.26458333,0,0,0.26458333,-50.477553,-113.04179)">
      <path
         d="m 380.791,920.486 c -0.231,-0.947 -0.284,-1.769 -0.625,-2.447 -0.924,-1.839 -2,-3.601 -2.96,-5.423 -1.521,-2.889 -2.999,-5.802 -4.489,-8.707 -0.564,-1.1 -0.31,-2.032 0.703,-2.694 2.062,-1.348 4.054,-2.854 6.253,-3.934 4.361,-2.141 8.844,-4.035 13.273,-6.038 0.727,-0.329 1.423,-0.73 2.158,-1.041 4.979,-2.108 9.961,-4.208 14.949,-6.293 1.316,-0.55 2.656,-1.043 3.989,-1.554 2.024,-0.776 2.763,-0.616 3.685,1.261 1.121,2.282 2.018,4.674 3.041,7.005 1.272,2.898 2.574,5.782 4.347,8.636 0.871,-2.853 1.743,-5.705 2.611,-8.559 0.461,-1.517 0.745,-3.116 1.42,-4.53 0.545,-1.142 1.886,-1.559 3.093,-1.403 4.421,0.571 8.831,1.238 13.235,1.935 4.017,0.635 7.875,1.867 11.724,3.161 1.787,0.601 3.698,0.843 5.562,1.201 2.066,0.397 3.562,1.763 5.043,3.06 1.001,0.878 0.732,2.245 0.474,3.408 -0.309,1.397 -0.805,2.753 -1.205,4.131 -0.15,0.519 -0.256,1.051 -0.466,1.925 2.196,-0.211 4.164,-0.392 6.13,-0.592 1.549,-0.157 3.092,-0.425 4.644,-0.479 1.137,-0.04 2.269,1.165 2.468,2.56 0.212,1.495 0.295,3.01 0.383,4.519 0.047,0.798 0.164,1.455 1.412,1.398 0.879,-1.978 1.955,-4.012 2.688,-6.163 0.735,-2.156 1.916,-3.167 4.282,-3.355 4.996,-0.397 9.958,-1.209 14.95,-1.669 3.164,-0.292 6.404,0.044 9.525,-0.448 3.348,-0.528 5.963,0 7.812,2.986 0.041,0.067 0.105,0.12 0.162,0.176 0.828,0.797 2.127,1.479 2.357,2.421 0.241,0.988 -0.479,2.25 -0.893,3.349 -1.287,3.419 -2.64,6.812 -3.936,10.227 -0.222,0.586 -0.289,1.23 -0.457,1.974 2.422,1.573 2.627,4.061 2.716,6.657 0.154,4.533 0.446,9.061 0.63,13.593 0.114,2.792 0.115,5.587 0.201,8.38 0.225,7.319 0.495,14.637 0.684,21.958 0.046,1.802 -0.165,3.609 -0.228,5.415 -0.039,1.113 0.024,2.23 -0.038,3.34 -0.131,2.377 -0.319,4.75 -0.47,7.125 -0.1,1.576 -1.278,2.443 -2.39,3.112 -4.637,2.792 -9.36,5.441 -14.046,8.152 -1.515,0.877 -3,1.805 -4.517,2.677 -3.865,2.219 -8.024,4.048 -11.53,6.733 -3.481,2.666 -7.525,3.942 -11.262,5.937 -4.709,2.514 -9.488,4.898 -14.228,7.354 -1.453,0.753 -2.876,1.038 -4.582,0.789 -2.701,-0.395 -5.182,-1.293 -7.728,-2.2 -5.382,-1.918 -10.883,-3.501 -16.319,-5.272 -1.438,-0.469 -2.782,-1.24 -4.23,-1.663 -2.371,-0.693 -4.609,-1.831 -6.935,-2.478 -4.419,-1.23 -8.441,-3.248 -12.568,-5.112 -2.895,-1.308 -5.948,-2.264 -8.9,-3.451 -1.772,-0.712 -3.476,-1.593 -5.231,-2.352 -4.598,-1.991 -9.206,-3.959 -13.811,-5.934 -1.596,-0.685 -3.286,-1.131 -4.478,-2.607 -0.687,-0.85 -1.194,-1.653 -1.253,-2.748 -0.073,-1.344 -0.239,-2.682 -0.299,-4.026 -0.183,-4.061 -0.376,-8.123 -0.49,-12.187 -0.244,-8.727 -0.398,-17.456 -0.675,-26.181 -0.136,-4.275 -0.573,-8.542 -0.667,-12.817 -0.066,-3.02 0.19,-6.05 0.354,-9.073 0.075,-1.38 1.03,-2.062 2.248,-2.422 0.823,-0.244 1.663,-0.436 2.7,-0.703 z m 2.904,69.988 c 0.18,0.213 0.266,0.352 0.386,0.45 1.299,1.072 2.577,1.922 4.144,0.326 0.342,-0.349 1.073,-0.316 1.625,-0.459 0.185,0.253 0.369,0.505 0.553,0.758 -0.379,0.139 -0.8,0.215 -1.125,0.434 -0.309,0.208 -0.519,0.566 -0.778,0.865 2.497,1.838 2.596,1.834 4.833,0.366 0.396,-0.26 0.868,-0.405 1.721,-0.79 -0.733,1.22 -1.2,1.999 -1.647,2.742 2.045,1.241 3.928,2.331 5.919,0.326 0.04,-0.041 0.257,0.094 0.444,0.168 -0.268,0.607 -0.536,1.212 -0.787,1.78 1.912,1.514 3.712,2.057 5.592,0.269 0.03,-0.028 0.236,0.129 0.381,0.212 -0.284,0.601 -0.569,1.202 -0.946,2 1.423,0.534 2.67,1.001 3.729,1.398 1.187,-0.24 1.669,-1.591 3.031,-1.189 -0.408,0.722 -0.769,1.361 -1.2,2.125 1.749,0.593 3.307,1.122 4.524,1.534 1.34,-0.495 1.882,-1.73 3.337,-1.514 -0.567,0.87 -1.026,1.574 -1.684,2.584 1.56,0.655 2.943,1.188 4.285,1.813 1.254,0.583 2.299,0.443 3.206,-0.627 0.068,-0.08 0.272,-0.044 0.548,-0.079 -0.105,0.556 -0.203,1.07 -0.341,1.798 1.522,0.58 3.06,1.166 4.549,1.733 0.892,-0.648 1.673,-1.216 2.911,-2.115 -0.506,1.26 -0.783,1.949 -1.125,2.799 1.807,0.654 3.438,1.244 5.084,1.84 1.098,-1.266 2.119,-2.466 4.169,-2.843 -0.919,1.191 -1.621,2.1 -2.521,3.265 2.319,0.679 4.205,1.231 5.938,1.738 0.96,-0.773 1.718,-1.384 2.475,-1.995 0.105,0.104 0.21,0.208 0.316,0.312 -0.312,0.738 -0.623,1.476 -1.003,2.375 1.4,0.555 2.636,1.045 3.605,1.429 1.142,-0.231 1.269,-1.705 2.544,-1.14 -0.057,0.555 -0.115,1.122 -0.164,1.611 1.744,1.142 3.461,1.423 5.231,0.766 0.732,1.554 1.512,1.78 3.613,1.03 -0.249,-1.904 -0.554,-3.858 -0.752,-5.823 -0.368,-3.647 -0.72,-7.296 -0.993,-10.951 -0.314,-4.198 -0.667,-8.4 -0.766,-12.606 -0.139,-5.905 0.017,-11.816 -0.094,-17.721 -0.109,-5.809 -0.374,-11.615 -0.615,-17.42 -0.063,-1.523 -0.276,-3.059 -2.018,-3.696 -3.425,-1.253 -6.847,-2.518 -10.291,-3.72 -0.736,-0.257 -1.67,-0.062 -2.324,-0.419 -2.306,-1.262 -4.884,-1.716 -7.304,-2.627 -2.079,-0.783 -4.428,-1.018 -6.321,-2.088 -2.636,-1.491 -5.554,-1.937 -8.316,-2.896 -6.619,-2.298 -13.384,-4.174 -20.016,-6.434 -4.443,-1.514 -8.749,-3.428 -13.139,-5.102 -2.419,-0.922 -4.885,-1.718 -7.67,-2.69 -0.186,1.521 -0.323,2.643 -0.473,3.867 0.708,-0.079 1.154,-0.129 1.808,-0.202 -1.873,2.03 -2.491,3.613 -1.768,4.256 0.631,-0.114 1.269,-0.229 2.135,-0.386 -2.226,2.897 -2.226,2.897 -1.783,4.61 0.65,-0.182 1.3,-0.364 1.95,-0.546 -1.317,1.699 -2.823,3.071 -2.013,5.388 0.6,-0.113 1.2,-0.226 2.046,-0.386 -2.436,3.148 -2.436,3.148 -1.729,4.848 0.711,-0.391 1.421,-0.781 2.132,-1.172 -0.393,1.03 -0.975,1.777 -1.629,2.454 -1.23,1.273 -1.299,2.611 -0.402,4.139 0.844,-0.515 1.608,-0.98 2.372,-1.446 0.151,0.109 0.302,0.218 0.454,0.328 -1.61,1.809 -3.748,3.425 -2.651,6.377 1.071,-0.63 1.692,-1.908 3.117,-1.889 -1.114,1.268 -1.339,3.249 -3.211,3.643 0,1.367 0,2.6 0,3.809 1.312,0.107 1.542,-1.664 2.967,-1.405 -1.056,2.48 -4.365,4.031 -2.677,7.435 0.733,-0.432 1.344,-0.793 1.954,-1.153 -1.096,2.208 -3.083,3.998 -1.635,6.83 0.806,-0.581 1.519,-1.096 2.233,-1.611 -0.17,0.984 -0.487,1.843 -1.094,2.365 -1.619,1.394 -1.25,3.017 -0.897,4.857 0.782,-0.364 1.427,-0.664 2.071,-0.963 -1.318,2.145 -2.968,4.03 -1.737,6.853 0.953,-0.678 1.793,-1.276 2.633,-1.874 0.108,0.118 0.216,0.237 0.324,0.355 -0.501,0.673 -1.003,1.344 -1.503,2.018 -1.473,1.986 -1.422,2.355 0.676,4.175 0.822,-0.593 1.675,-1.207 2.528,-1.822 0.082,0.075 0.163,0.151 0.245,0.226 -0.37,0.657 -0.741,1.314 -1.196,2.12 z m 135.064,-64.678 c -0.886,0.191 -1.433,0.243 -1.932,0.427 -3.139,1.156 -6.303,2.253 -9.391,3.533 -7.502,3.109 -14.971,6.299 -22.445,9.475 -1.833,0.779 -3.578,1.82 -5.468,2.401 -3.266,1.003 -6.476,2.092 -9.581,3.536 -4.247,1.977 -8.559,3.813 -13.022,5.788 0,1.663 -0.085,3.419 0.019,5.164 0.184,3.098 0.638,6.185 0.698,9.283 0.116,5.981 0.015,11.966 0.048,17.949 0.017,3.116 -0.014,6.242 0.228,9.344 0.527,6.743 1.173,13.478 1.861,20.207 0.213,2.084 0.721,4.138 1.11,6.293 4.427,-1.197 8.164,-3.671 12.175,-5.519 2.351,-1.083 4.397,-2.761 6.855,-3.7 1.335,-0.51 2.59,-1.246 3.843,-1.948 4.993,-2.798 9.969,-5.627 14.956,-8.436 2.292,-1.291 4.605,-2.543 6.892,-3.843 4.225,-2.401 8.639,-4.516 12.278,-7.826 0.489,-0.444 0.983,-1.114 1.066,-1.734 0.482,-3.594 1.022,-7.195 1.189,-10.81 0.153,-3.323 -0.163,-6.666 -0.236,-10.001 -0.174,-7.982 -0.286,-15.965 -0.501,-23.946 -0.135,-5.093 -0.412,-10.183 -0.642,-15.637 z m -28.006,-17.632 c -1.89,5.131 -3.938,10.404 -5.771,15.749 -1.805,5.262 -4.202,10.341 -5.408,16.052 4.025,-1.672 7.703,-3.192 11.375,-4.726 6.399,-2.673 12.739,-5.501 19.217,-7.968 2.958,-1.127 4.24,-3.041 4.599,-5.963 0.105,-0.852 0.324,-1.767 0.762,-2.488 2.19,-3.595 3.149,-7.665 4.586,-11.549 0.142,-0.384 0.019,-0.866 0.019,-1.404 -4.391,0.313 -8.693,-0.633 -12.881,0.754 -0.364,0.12 -0.795,0.053 -1.194,0.048 -3.513,-0.048 -7.007,-0.004 -10.457,0.859 -1.446,0.362 -2.973,0.401 -4.847,0.636 z m -97.66,19.74 c -0.777,-0.514 -1.252,-0.695 -1.531,-1.035 -1.55,-1.89 -3.632,-3.601 -4.449,-5.78 -1.682,-4.483 -0.93,-9.04 1.81,-13.001 5.167,-7.47 14.763,-12.659 25.053,-8.948 3.274,1.181 5.784,3.195 7.29,6.159 1.48,2.912 2.149,6.158 1.973,9.5 -0.023,0.44 0.044,0.884 0.082,1.558 1.885,-0.725 3.567,-1.373 5.213,-2.006 -0.02,-0.422 0.05,-0.705 -0.054,-0.89 -1.786,-3.17 -2.385,-6.928 -4.84,-9.772 -0.301,-0.349 -0.456,-0.836 -0.636,-1.276 -2.012,-4.909 -3.991,-9.831 -6.042,-14.724 -0.449,-1.071 -1.144,-2.038 -1.869,-3.303 -5.931,2.3 -11.741,4.448 -17.465,6.807 -4.045,1.667 -8.01,3.542 -11.943,5.464 -3.062,1.496 -6.053,3.148 -9.011,4.845 -1.717,0.985 -1.776,1.733 -0.788,3.534 1.336,2.435 2.65,4.882 3.926,7.349 0.472,0.913 0.761,1.92 1.216,2.844 0.874,1.775 2.071,3.438 2.664,5.297 1.419,4.453 4.602,6.496 9.401,7.378 z m 14.406,-28.311 c -4.462,-0.156 -8.154,1.193 -11.499,3.545 -3.748,2.636 -6.633,5.943 -7.917,10.473 -0.731,2.581 -0.399,5.215 0.575,7.478 0.802,1.863 2.543,3.471 4.197,4.772 1.461,1.149 3.308,1.781 5.259,0.46 1.235,-0.836 2.632,-1.487 4.035,-2.011 5.738,-2.141 11.491,-4.248 17.278,-6.253 1.179,-0.408 1.727,-1.079 1.856,-2.169 0.453,-3.837 -0.243,-7.507 -2.251,-10.778 -0.845,-1.376 -2.146,-2.788 -3.577,-3.42 -2.586,-1.141 -5.256,-2.418 -7.956,-2.097 z m 37.788,18.089 c 2.867,0.23 5.321,0.487 7.781,0.602 1.757,0.082 2.284,-0.374 2.797,-1.953 0.738,-2.269 1.416,-4.56 2.236,-6.799 1.171,-3.197 2.476,-6.345 3.667,-9.534 0.664,-1.779 1.214,-3.6 1.892,-5.628 -0.898,-0.401 -1.718,-0.871 -2.599,-1.138 -1.599,-0.485 -3.254,-0.788 -4.852,-1.278 -2.575,-0.79 -5.083,-1.83 -7.69,-2.477 -4.86,-1.207 -9.81,-1.953 -14.817,-2.274 -1.613,-0.103 -2.688,0.45 -3.166,1.943 -1.409,4.402 -2.743,8.827 -4.079,13.252 -0.129,0.428 -0.221,0.979 -0.063,1.364 1.315,3.22 2.692,6.414 4.117,9.774 1.787,-0.724 3.383,-1.24 4.848,-2.007 1.101,-0.577 1.73,-0.238 2.501,0.515 1.345,1.314 1.612,3.089 2.161,4.732 0.644,1.926 1.139,3.902 1.822,6.289 1.327,-2.073 2.417,-3.777 3.444,-5.383 z m -32.232,17.157 c 1.826,-5.608 6.232,-7.983 11.461,-8.998 5.164,-1.003 10.136,-0.41 14.245,3.434 0.85,-1.499 1.553,-2.739 2.11,-3.722 -0.472,-1.392 -0.881,-2.507 -1.229,-3.641 -0.699,-2.278 -1.275,-4.598 -2.073,-6.839 -0.697,-1.959 -1.101,-2.107 -3.018,-1.452 -2.025,0.692 -4.022,1.472 -6.017,2.248 -4.523,1.759 -9.038,3.538 -13.555,5.312 -2.222,0.872 -4.435,1.767 -6.664,2.62 -2.371,0.907 -4.789,1.696 -7.124,2.686 -1.783,0.756 -3.468,1.745 -5.771,2.924 6.185,2.006 11.735,4.049 17.635,5.428 z m 22.784,5.544 c 2.509,0.678 4.756,1.48 7.072,1.867 3.916,0.653 7.889,0.963 11.815,1.571 2.798,0.434 5.553,1.137 8.334,1.688 2.001,0.396 4.493,-0.32 5.248,-2.169 2.079,-5.087 4.38,-10.083 6.52,-15.145 0.703,-1.663 1.183,-3.42 1.872,-5.448 -1.493,-0.12 -2.699,-0.037 -3.802,-0.336 -4.169,-1.131 -8.422,-1.554 -12.709,-1.862 -4.364,-0.314 -8.718,-0.766 -13.076,-1.165 -1.238,-0.113 -1.687,0.474 -1.634,1.698 3.268,0.419 6.442,0.723 9.575,1.262 2.255,0.388 4.463,1.061 6.677,1.663 0.975,0.265 1.467,0.905 1.136,1.99 -0.532,1.744 -0.939,3.532 -1.577,5.235 -1.059,2.827 -2.297,5.586 -3.382,8.404 -0.396,1.029 -1.055,1.318 -2.039,1.172 -2.977,-0.441 -5.946,-0.938 -8.931,-1.318 -3.456,-0.44 -6.925,-0.778 -10.466,-1.169 -0.219,0.715 -0.379,1.234 -0.633,2.062 z m 42.394,-17.302 c 1.118,-1.868 1.764,-3.418 1.355,-5.264 -0.456,-2.059 -0.429,-4.224 -1.557,-6.137 -0.333,-0.564 -0.282,-1.362 -0.378,-2.056 -0.163,-1.176 -0.263,-2.362 -0.468,-3.531 -0.14,-0.797 -0.664,-1.299 -1.523,-1.192 -3.379,0.421 -6.753,0.882 -10.131,1.309 -0.924,0.117 -1.352,0.676 -1.641,1.501 -0.893,2.551 -1.845,5.081 -2.748,7.629 -0.383,1.081 -0.701,2.186 -1.066,3.338 0.666,0.251 1.026,0.489 1.399,0.512 4.932,0.302 9.801,1.005 14.642,2.001 1.073,0.221 1.879,0.406 2.116,1.89 z m -40.917,13.837 c 6.742,0.486 12.943,1.955 19.584,2.055 1.419,-3.852 2.869,-7.635 4.193,-11.462 0.472,-1.365 0.105,-2.11 -1.345,-2.604 -1.851,-0.63 -3.777,-1.086 -5.705,-1.43 -1.953,-0.348 -3.944,-0.493 -5.922,-0.678 -1.329,-0.124 -2.666,-0.163 -3.927,-0.235 -2.637,4.609 -4.981,9.108 -6.878,14.354 z m -1.81,5.544 c -1.394,-1.697 -1.203,-3.057 -0.598,-4.44 0.976,-2.235 1.956,-4.468 2.912,-6.65 -2.263,-2.369 -4.652,-3.989 -7.809,-4.072 -1.569,-0.041 -3.156,-0.12 -4.707,0.061 -3.521,0.412 -6.539,1.938 -8.941,4.571 -0.98,1.075 -1.81,2.252 -1.146,4.004 3.097,0.989 6.274,1.984 9.436,3.027 0.992,0.328 1.739,0.029 2.65,-0.418 3.244,-1.596 5.898,-0.106 6.147,3.41 0.485,0.12 1,0.247 2.056,0.507 z m 51.648,-37.401 c -0.329,0.542 -0.512,0.789 -0.639,1.061 -0.764,1.635 -1.173,3.394 -1.744,5.083 -1.856,5.491 -4.104,10.851 -6.232,16.25 -1.401,3.554 -2.897,7.07 -4.263,10.637 -0.444,1.158 -0.611,2.423 -0.951,3.833 2.438,-0.282 4.452,-0.692 4.888,-3.459 0.109,-0.688 0.555,-1.318 0.799,-1.991 2.909,-8.013 5.815,-16.027 8.705,-24.047 0.59,-1.637 1.108,-3.3 1.657,-4.942 -0.722,-0.79 -1.362,-1.488 -2.22,-2.425 z m 31.733,-0.958 c -1.118,-1.465 -2.372,-2.41 -4.183,-2.389 -3.237,0.038 -6.475,0.074 -9.711,0.171 -1.026,0.031 -2.045,0.262 -3.068,0.388 -1.892,0.232 -3.785,0.462 -5.679,0.678 -2.506,0.286 -5.013,0.557 -7.625,0.846 1.415,2.541 2.791,3.278 5.356,2.815 3.205,-0.578 6.381,-1.318 9.673,-1.216 1.35,0.042 2.713,0.075 4.053,-0.055 3.632,-0.354 7.255,-0.797 11.184,-1.238 z m -56.568,42.289 c -8.391,-1.2 -16.782,-2.4 -25.173,-3.6 0.376,0.546 0.834,0.823 1.331,0.97 5.406,1.597 10.932,2.813 16.104,5.152 0.545,0.247 1.269,0.35 1.847,0.226 2.087,-0.447 4.182,-0.931 5.891,-2.748 z m -4.201,-27.734 c 0.676,-1.7 1.362,-3.457 2.072,-5.205 1.632,-4.015 2.338,-8.359 4.477,-12.209 0.628,-1.131 0.722,-2.582 0.938,-3.906 0.071,-0.436 -0.243,-0.936 -0.554,-1.998 -0.721,1.436 -1.255,2.301 -1.605,3.235 -1.445,3.857 -2.892,7.714 -4.221,11.612 -0.816,2.393 -1.407,4.862 -2.123,7.291 -0.236,0.799 -0.066,1.233 1.016,1.18 z m 14.332,19.019 c -1.359,1.575 -1.859,3.559 -2.442,5.754 1.459,-0.74 1.816,-1.571 2.442,-5.754 z m -40.952,3.64 c -0.101,-1.559 -1.167,-1.529 -2.02,-1.759 -0.211,-0.057 -0.543,0.338 -1.113,0.724 1.269,0.42 2.201,0.727 3.133,1.035 z m 48.884,-27.819 c 0.165,0.972 0.306,1.804 0.501,2.957 1.45,-2.328 1.435,-2.42 -0.501,-2.957 z m -99.934,10.069 c 0.76,0.201 1.52,0.403 2.409,0.638 -0.379,-2.101 -1.419,-1.281 -2.409,-0.638 z m 134.767,1.5 c 1.125,-0.495 1.768,-0.778 2.756,-1.214 -0.824,-0.412 -1.225,-0.613 -1.745,-0.873 -0.283,0.587 -0.512,1.057 -1.011,2.087 z"
         id="path1129" />
      <path
         fill="#b0b0af"
         d="m 383.695,990.474 c 0.455,-0.806 0.826,-1.463 1.197,-2.12 -0.082,-0.075 -0.163,-0.151 -0.245,-0.226 -0.853,0.615 -1.706,1.229 -2.528,1.822 -2.098,-1.821 -2.149,-2.189 -0.676,-4.175 0.5,-0.674 1.002,-1.346 1.503,-2.018 -0.108,-0.118 -0.216,-0.237 -0.324,-0.355 -0.84,0.598 -1.68,1.196 -2.633,1.874 -1.231,-2.824 0.419,-4.709 1.737,-6.853 -0.645,0.3 -1.289,0.599 -2.071,0.963 -0.353,-1.841 -0.721,-3.464 0.897,-4.857 0.607,-0.522 0.924,-1.381 1.094,-2.365 -0.714,0.515 -1.427,1.03 -2.233,1.611 -1.448,-2.832 0.539,-4.622 1.635,-6.83 -0.611,0.36 -1.221,0.72 -1.954,1.153 -1.688,-3.404 1.621,-4.955 2.677,-7.435 -1.426,-0.258 -1.655,1.512 -2.967,1.405 0,-1.208 0,-2.442 0,-3.809 1.872,-0.394 2.097,-2.375 3.211,-3.643 -1.425,-0.019 -2.046,1.259 -3.117,1.889 -1.097,-2.952 1.04,-4.568 2.651,-6.377 -0.151,-0.109 -0.302,-0.218 -0.454,-0.328 -0.764,0.466 -1.528,0.931 -2.372,1.446 -0.896,-1.527 -0.828,-2.865 0.402,-4.139 0.654,-0.677 1.236,-1.423 1.629,-2.454 -0.711,0.391 -1.421,0.781 -2.132,1.171 -0.706,-1.699 -0.706,-1.699 1.73,-4.847 -0.846,0.16 -1.446,0.273 -2.046,0.386 -0.809,-2.317 0.696,-3.689 2.013,-5.388 -0.65,0.182 -1.3,0.364 -1.951,0.545 -0.443,-1.712 -0.443,-1.712 1.783,-4.609 -0.867,0.157 -1.504,0.272 -2.135,0.386 -0.723,-0.643 -0.105,-2.226 1.768,-4.256 -0.654,0.073 -1.101,0.123 -1.808,0.202 0.15,-1.224 0.287,-2.346 0.473,-3.867 2.785,0.971 5.252,1.767 7.67,2.69 4.391,1.674 8.696,3.587 13.139,5.102 6.633,2.261 13.398,4.137 20.016,6.434 2.762,0.959 5.68,1.405 8.316,2.896 1.894,1.071 4.242,1.305 6.321,2.088 2.42,0.911 4.998,1.365 7.304,2.627 0.654,0.358 1.587,0.163 2.324,0.419 3.444,1.201 6.865,2.466 10.291,3.72 1.742,0.638 1.955,2.173 2.018,3.696 0.242,5.805 0.506,11.611 0.615,17.42 0.111,5.906 -0.044,11.817 0.094,17.721 0.099,4.206 0.452,8.408 0.766,12.606 0.273,3.655 0.626,7.304 0.993,10.951 0.198,1.965 0.503,3.919 0.752,5.823 -2.101,0.75 -2.88,0.523 -3.613,-1.03 -1.77,0.657 -3.487,0.376 -5.231,-0.766 0.05,-0.489 0.108,-1.057 0.164,-1.611 -1.276,-0.564 -1.402,0.909 -2.544,1.14 -0.97,-0.384 -2.206,-0.874 -3.605,-1.429 0.379,-0.898 0.691,-1.636 1.003,-2.375 -0.105,-0.104 -0.21,-0.208 -0.316,-0.312 -0.758,0.61 -1.515,1.221 -2.475,1.995 -1.733,-0.507 -3.619,-1.059 -5.938,-1.738 0.9,-1.165 1.602,-2.074 2.521,-3.265 -2.051,0.377 -3.072,1.578 -4.169,2.843 -1.646,-0.596 -3.277,-1.186 -5.084,-1.84 0.342,-0.851 0.619,-1.539 1.125,-2.799 -1.238,0.899 -2.02,1.467 -2.911,2.115 -1.489,-0.567 -3.027,-1.153 -4.549,-1.733 0.138,-0.728 0.235,-1.242 0.341,-1.798 -0.276,0.035 -0.48,-10e-4 -0.548,0.079 -0.908,1.069 -1.953,1.21 -3.206,0.627 -1.341,-0.624 -2.725,-1.158 -4.285,-1.813 0.658,-1.01 1.117,-1.714 1.684,-2.584 -1.455,-0.216 -1.997,1.02 -3.337,1.514 -1.216,-0.413 -2.775,-0.941 -4.524,-1.534 0.431,-0.764 0.792,-1.402 1.2,-2.125 -1.362,-0.402 -1.844,0.949 -3.031,1.189 -1.059,-0.397 -2.306,-0.865 -3.729,-1.398 0.377,-0.797 0.662,-1.399 0.946,-2 -0.145,-0.083 -0.351,-0.241 -0.381,-0.212 -1.88,1.788 -3.68,1.245 -5.592,-0.269 0.251,-0.568 0.519,-1.173 0.787,-1.78 -0.187,-0.074 -0.404,-0.209 -0.444,-0.168 -1.991,2.005 -3.874,0.914 -5.919,-0.326 0.446,-0.743 0.914,-1.522 1.647,-2.742 -0.852,0.386 -1.324,0.53 -1.721,0.79 -2.237,1.468 -2.336,1.471 -4.833,-0.366 0.26,-0.299 0.469,-0.656 0.778,-0.865 0.325,-0.219 0.746,-0.295 1.125,-0.434 -0.184,-0.253 -0.369,-0.505 -0.553,-0.758 -0.552,0.143 -1.283,0.11 -1.625,0.459 -1.567,1.596 -2.845,0.746 -4.144,-0.326 -0.121,-0.098 -0.207,-0.237 -0.387,-0.45 z"
         id="path1131" />
      <path
         fill="#d8d8d8"
         d="m 518.759,925.796 c 0.23,5.454 0.507,10.545 0.644,15.639 0.215,7.981 0.327,15.964 0.501,23.946 0.073,3.335 0.388,6.678 0.236,10.001 -0.166,3.615 -0.707,7.217 -1.189,10.81 -0.083,0.62 -0.578,1.29 -1.066,1.734 -3.639,3.31 -8.053,5.424 -12.278,7.826 -2.287,1.3 -4.6,2.552 -6.892,3.843 -4.987,2.809 -9.963,5.638 -14.956,8.436 -1.253,0.702 -2.509,1.438 -3.843,1.948 -2.458,0.94 -4.504,2.617 -6.855,3.7 -4.011,1.848 -7.748,4.322 -12.175,5.519 -0.389,-2.155 -0.897,-4.209 -1.11,-6.293 -0.689,-6.729 -1.335,-13.464 -1.861,-20.207 -0.242,-3.102 -0.211,-6.228 -0.228,-9.344 -0.033,-5.983 0.068,-11.968 -0.048,-17.949 -0.06,-3.097 -0.515,-6.185 -0.698,-9.283 -0.103,-1.745 -0.019,-3.501 -0.019,-5.164 4.463,-1.976 8.775,-3.812 13.022,-5.788 3.105,-1.445 6.315,-2.533 9.581,-3.536 1.89,-0.581 3.635,-1.622 5.468,-2.401 7.474,-3.176 14.943,-6.366 22.445,-9.475 3.088,-1.28 6.252,-2.378 9.391,-3.533 0.497,-0.186 1.044,-0.238 1.93,-0.429 z m -43.614,32.103 c 1.211,0.956 2.723,1.294 4.214,1.178 2.203,-0.17 4.414,-0.499 6.565,-1.003 4.569,-1.07 9.085,-2.359 13.092,-4.93 2.188,-1.403 2.145,-2.888 0.033,-4.447 -2.234,-1.65 -4.758,-1.448 -7.093,-0.753 -3.493,1.039 -6.89,2.437 -10.25,3.867 -1.745,0.742 -3.375,1.8 -4.955,2.867 -1.039,0.702 -2.058,1.592 -1.606,3.221 z"
         id="path1133" />
      <path
         fill="#f7ec65"
         d="m 490.753,908.164 c 1.874,-0.234 3.401,-0.274 4.847,-0.636 3.45,-0.863 6.944,-0.907 10.457,-0.859 0.399,0.005 0.83,0.073 1.194,-0.048 4.188,-1.387 8.49,-0.441 12.881,-0.754 0,0.538 0.123,1.02 -0.019,1.404 -1.437,3.884 -2.396,7.954 -4.586,11.549 -0.439,0.721 -0.657,1.636 -0.762,2.488 -0.36,2.921 -1.641,4.836 -4.599,5.963 -6.478,2.467 -12.818,5.294 -19.217,7.968 -3.672,1.534 -7.35,3.055 -11.375,4.726 1.206,-5.711 3.603,-10.791 5.408,-16.052 1.834,-5.346 3.881,-10.619 5.771,-15.749 z m 0.197,9.684 c 2.493,-0.37 4.625,-0.538 6.682,-1.026 3.671,-0.871 7.36,-0.904 11.08,-0.645 2.873,0.201 3.917,-0.331 4.764,-2.45 0.802,-2.008 0.313,-2.905 -1.811,-2.915 -2.382,-0.012 -4.766,0.165 -7.147,0.294 -3.796,0.205 -7.59,0.439 -11.331,0.658 -0.752,2.046 -1.427,3.882 -2.237,6.084 z"
         id="path1135" />
      <path
         fill="#e68b6a"
         d="m 393.093,927.904 c -4.799,-0.882 -7.981,-2.925 -9.402,-7.379 -0.593,-1.859 -1.789,-3.521 -2.664,-5.297 -0.455,-0.924 -0.744,-1.93 -1.216,-2.844 -1.275,-2.467 -2.589,-4.915 -3.926,-7.349 -0.989,-1.801 -0.93,-2.549 0.788,-3.534 2.958,-1.696 5.949,-3.348 9.011,-4.845 3.933,-1.922 7.898,-3.797 11.943,-5.464 5.724,-2.358 11.534,-4.507 17.465,-6.807 0.725,1.265 1.421,2.232 1.869,3.303 2.05,4.893 4.03,9.815 6.042,14.724 0.18,0.44 0.335,0.927 0.636,1.276 2.454,2.844 3.054,6.601 4.84,9.772 0.104,0.185 0.034,0.468 0.054,0.89 -1.645,0.633 -3.328,1.28 -5.213,2.006 -0.038,-0.674 -0.105,-1.118 -0.082,-1.558 0.177,-3.342 -0.492,-6.588 -1.973,-9.5 -1.506,-2.963 -4.017,-4.978 -7.29,-6.159 -10.29,-3.712 -19.885,1.478 -25.053,8.948 -2.74,3.961 -3.492,8.518 -1.81,13.001 0.817,2.178 2.9,3.89 4.449,5.78 0.28,0.341 0.755,0.521 1.532,1.036 z"
         id="path1137" />
      <path
         fill="#e68b6a"
         d="m 407.499,899.593 c 2.7,-0.321 5.37,0.955 7.956,2.098 1.431,0.632 2.732,2.044 3.577,3.42 2.008,3.271 2.703,6.941 2.251,10.778 -0.129,1.09 -0.677,1.76 -1.856,2.169 -5.787,2.005 -11.539,4.112 -17.278,6.253 -1.403,0.523 -2.8,1.174 -4.035,2.011 -1.95,1.321 -3.798,0.689 -5.259,-0.46 -1.655,-1.301 -3.396,-2.909 -4.197,-4.772 -0.974,-2.263 -1.306,-4.897 -0.575,-7.478 1.283,-4.53 4.169,-7.837 7.917,-10.473 3.345,-2.353 7.037,-3.701 11.499,-3.546 z m 5.137,17.036 c -0.345,-0.997 -0.445,-1.938 -0.934,-2.584 -2.201,-2.904 -4.473,-3.426 -7.751,-1.95 -2.175,0.98 -3.7,4.18 -2.669,5.921 2.616,4.421 5.934,4.255 9.649,1.627 0.853,-0.603 1.152,-1.989 1.705,-3.014 z"
         id="path1139" />
      <path
         fill="#ffa1fc"
         d="m 445.287,917.682 c -1.027,1.607 -2.117,3.31 -3.442,5.383 -0.683,-2.386 -1.178,-4.362 -1.822,-6.289 -0.549,-1.642 -0.816,-3.418 -2.161,-4.732 -0.771,-0.753 -1.4,-1.091 -2.501,-0.515 -1.465,0.767 -3.061,1.283 -4.848,2.007 -1.425,-3.36 -2.802,-6.554 -4.117,-9.774 -0.157,-0.385 -0.066,-0.936 0.063,-1.364 1.336,-4.425 2.67,-8.85 4.079,-13.252 0.478,-1.493 1.553,-2.046 3.166,-1.943 5.006,0.32 9.956,1.066 14.817,2.274 2.607,0.648 5.115,1.687 7.69,2.477 1.598,0.49 3.252,0.793 4.852,1.278 0.881,0.267 1.701,0.737 2.599,1.138 -0.677,2.029 -1.227,3.85 -1.892,5.628 -1.191,3.19 -2.496,6.337 -3.667,9.534 -0.82,2.239 -1.498,4.53 -2.236,6.799 -0.514,1.579 -1.04,2.035 -2.797,1.953 -2.462,-0.115 -4.916,-0.373 -7.783,-0.602 z M 431.009,904.28 c 1.219,0.318 2.517,0.613 3.787,0.999 1.504,0.457 2.988,0.98 4.471,1.5 0.448,0.157 0.849,0.452 1.299,0.597 3.241,1.043 6.488,2.066 9.735,3.091 1.959,0.619 2.02,0.529 2.786,-1.348 1.081,-2.648 2.293,-5.243 3.397,-7.882 0.334,-0.797 0.555,-1.655 0.721,-2.505 0.168,-0.857 -0.275,-1.265 -1.146,-1.461 -2.778,-0.625 -5.536,-1.343 -8.305,-2.012 -0.617,-0.149 -1.249,-0.234 -1.87,-0.369 -3.788,-0.825 -7.574,-1.655 -11.464,-2.507 -1.06,3.7 -2.197,7.664 -3.411,11.897 z"
         id="path1141" />
      <path
         fill="#a1f7a7"
         d="m 413.055,934.839 c -5.9,-1.379 -11.449,-3.421 -17.635,-5.428 2.303,-1.179 3.988,-2.168 5.771,-2.924 2.334,-0.99 4.753,-1.78 7.124,-2.686 2.229,-0.853 4.442,-1.747 6.664,-2.62 4.517,-1.773 9.032,-3.553 13.555,-5.312 1.995,-0.776 3.992,-1.556 6.017,-2.248 1.917,-0.655 2.321,-0.507 3.018,1.452 0.798,2.242 1.374,4.562 2.073,6.839 0.348,1.133 0.756,2.248 1.229,3.641 -0.557,0.983 -1.26,2.223 -2.11,3.722 -4.109,-3.844 -9.081,-4.436 -14.245,-3.434 -5.23,1.015 -9.636,3.389 -11.461,8.998 z"
         id="path1143" />
      <path
         fill="#91ccff"
         d="m 435.839,940.383 c 0.255,-0.829 0.414,-1.347 0.634,-2.063 3.541,0.391 7.01,0.73 10.466,1.169 2.985,0.38 5.954,0.877 8.931,1.318 0.983,0.146 1.643,-0.143 2.039,-1.172 1.084,-2.818 2.322,-5.578 3.382,-8.404 0.638,-1.703 1.045,-3.492 1.577,-5.235 0.331,-1.085 -0.161,-1.725 -1.136,-1.99 -2.214,-0.602 -4.422,-1.275 -6.677,-1.663 -3.133,-0.539 -6.307,-0.843 -9.575,-1.262 -0.053,-1.224 0.396,-1.811 1.634,-1.698 4.358,0.399 8.712,0.851 13.076,1.165 4.287,0.308 8.54,0.731 12.709,1.862 1.102,0.299 2.308,0.217 3.802,0.336 -0.689,2.029 -1.169,3.786 -1.872,5.448 -2.14,5.063 -4.441,10.058 -6.52,15.145 -0.755,1.849 -3.248,2.565 -5.248,2.169 -2.781,-0.551 -5.536,-1.255 -8.334,-1.688 -3.925,-0.608 -7.898,-0.918 -11.815,-1.571 -2.317,-0.385 -4.564,-1.188 -7.073,-1.866 z"
         id="path1145" />
      <path
         fill="#e68b6a"
         d="m 478.233,923.081 c -0.238,-1.484 -1.044,-1.669 -2.115,-1.89 -4.841,-0.997 -9.71,-1.7 -14.642,-2.001 -0.373,-0.023 -0.733,-0.261 -1.399,-0.512 0.366,-1.152 0.683,-2.257 1.066,-3.338 0.903,-2.548 1.854,-5.078 2.748,-7.629 0.289,-0.825 0.717,-1.384 1.641,-1.501 3.378,-0.427 6.752,-0.887 10.131,-1.309 0.859,-0.107 1.383,0.395 1.523,1.192 0.205,1.168 0.305,2.355 0.468,3.531 0.096,0.694 0.045,1.492 0.378,2.056 1.129,1.913 1.101,4.077 1.557,6.137 0.408,1.847 -0.238,3.396 -1.356,5.264 z"
         id="path1147" />
      <path
         fill="#ebebeb"
         d="m 437.316,936.918 c 1.897,-5.246 4.242,-9.745 6.878,-14.353 1.261,0.073 2.598,0.111 3.927,0.235 1.979,0.185 3.97,0.33 5.922,0.678 1.927,0.343 3.854,0.799 5.705,1.43 1.45,0.494 1.817,1.239 1.345,2.604 -1.324,3.827 -2.774,7.61 -4.193,11.462 -6.641,-0.101 -12.842,-1.57 -19.584,-2.056 z m 20.193,-7.236 c 0.124,-0.382 0.245,-0.67 0.313,-0.971 0.447,-1.979 0.436,-1.944 -1.68,-2.354 -3.121,-0.605 -6.235,-1.252 -9.346,-1.91 -1.448,-0.306 -2.042,-0.089 -2.692,1.256 -0.296,0.613 -0.445,1.297 -0.598,1.76 4.699,0.745 9.231,1.463 14.003,2.219 z"
         id="path1149" />
      <path
         fill="#a1f7a7"
         d="m 435.506,942.462 c -1.056,-0.26 -1.571,-0.387 -2.056,-0.507 -0.249,-3.516 -2.903,-5.006 -6.147,-3.41 -0.91,0.448 -1.657,0.746 -2.65,0.418 -3.162,-1.043 -6.339,-2.038 -9.436,-3.027 -0.665,-1.752 0.166,-2.93 1.146,-4.004 2.402,-2.634 5.42,-4.159 8.941,-4.571 1.551,-0.181 3.138,-0.102 4.707,-0.061 3.156,0.083 5.545,1.703 7.809,4.072 -0.956,2.182 -1.936,4.416 -2.912,6.65 -0.604,1.383 -0.796,2.743 0.598,4.44 z"
         id="path1151" />
      <path
         fill="#f7ec65"
         d="m 487.154,905.061 c 0.858,0.937 1.498,1.635 2.22,2.424 -0.548,1.642 -1.067,3.305 -1.657,4.942 -2.89,8.02 -5.796,16.034 -8.705,24.047 -0.244,0.673 -0.691,1.303 -0.799,1.991 -0.436,2.767 -2.45,3.177 -4.888,3.459 0.34,-1.41 0.507,-2.674 0.951,-3.833 1.366,-3.567 2.862,-7.083 4.263,-10.637 2.128,-5.398 4.375,-10.758 6.232,-16.25 0.571,-1.688 0.98,-3.448 1.744,-5.083 0.126,-0.272 0.309,-0.518 0.639,-1.06 z"
         id="path1153" />
      <path
         fill="#cfc555"
         d="m 518.887,904.103 c -3.929,0.441 -7.552,0.884 -11.184,1.238 -1.341,0.13 -2.703,0.097 -4.053,0.055 -3.292,-0.102 -6.468,0.637 -9.673,1.216 -2.565,0.463 -3.941,-0.273 -5.356,-2.815 2.611,-0.289 5.119,-0.56 7.625,-0.846 1.894,-0.216 3.787,-0.446 5.679,-0.678 1.024,-0.126 2.043,-0.357 3.068,-0.388 3.236,-0.097 6.474,-0.133 9.711,-0.171 1.811,-0.021 3.065,0.924 4.183,2.389 z"
         id="path1155" />
      <path
         fill="#ffa1fc"
         d="m 462.319,946.392 c -1.709,1.816 -3.804,2.301 -5.891,2.749 -0.578,0.124 -1.302,0.02 -1.847,-0.226 -5.172,-2.339 -10.698,-3.555 -16.104,-5.152 -0.497,-0.147 -0.955,-0.424 -1.331,-0.97 8.391,1.2 16.782,2.4 25.173,3.599 z"
         id="path1157" />
      <path
         fill="#ffa1fc"
         d="m 458.118,918.658 c -1.081,0.053 -1.252,-0.381 -1.016,-1.181 0.716,-2.428 1.307,-4.897 2.123,-7.291 1.329,-3.897 2.776,-7.755 4.221,-11.612 0.35,-0.934 0.885,-1.799 1.605,-3.235 0.311,1.062 0.625,1.561 0.554,1.998 -0.216,1.324 -0.31,2.775 -0.938,3.906 -2.138,3.85 -2.845,8.194 -4.477,12.209 -0.71,1.749 -1.396,3.506 -2.072,5.206 z"
         id="path1159" />
      <path
         fill="#ffa1fc"
         d="m 472.45,937.677 c -0.626,4.183 -0.983,5.014 -2.442,5.754 0.583,-2.195 1.083,-4.179 2.442,-5.754 z"
         id="path1161" />
      <path
         fill="#a1f7a7"
         d="m 431.498,941.317 c -0.932,-0.308 -1.864,-0.615 -3.133,-1.034 0.57,-0.386 0.902,-0.781 1.113,-0.724 0.853,0.229 1.92,0.199 2.02,1.758 z"
         id="path1163" />
      <path
         fill="#b0b0af"
         d="m 480.382,913.498 c 1.936,0.536 1.951,0.629 0.501,2.957 -0.195,-1.153 -0.336,-1.985 -0.501,-2.957 z"
         id="path1165" />
      <path
         fill="#b0b0af"
         d="m 380.448,923.567 c 0.99,-0.642 2.029,-1.462 2.409,0.638 -0.889,-0.236 -1.649,-0.437 -2.409,-0.638 z"
         id="path1167" />
      <path
         fill="#b0b0af"
         d="m 515.215,925.067 c 0.499,-1.03 0.728,-1.501 1.011,-2.086 0.52,0.26 0.921,0.461 1.745,0.873 -0.988,0.435 -1.631,0.718 -2.756,1.213 z"
         id="path1169" />
      <path
         d="m 475.145,957.899 c -0.452,-1.629 0.568,-2.519 1.608,-3.221 1.58,-1.066 3.21,-2.125 4.955,-2.867 3.36,-1.43 6.757,-2.828 10.25,-3.867 2.335,-0.694 4.859,-0.897 7.093,0.753 2.111,1.559 2.154,3.044 -0.033,4.447 -4.008,2.571 -8.523,3.859 -13.092,4.93 -2.151,0.504 -4.363,0.833 -6.565,1.003 -1.493,0.115 -3.005,-0.222 -4.216,-1.178 z m 1.864,-1.05 c 1.936,1.138 3.758,0.979 5.54,0.593 2.567,-0.555 5.141,-1.136 7.64,-1.931 2.191,-0.696 4.322,-1.62 6.401,-2.608 0.942,-0.447 2.055,-0.949 2.29,-2.469 -2.07,-1.297 -4.438,-1.743 -6.715,-1.215 -2.694,0.625 -5.326,1.674 -7.849,2.835 -2.566,1.179 -5.286,2.235 -7.307,4.795 z"
         id="path1171" />
      <path
         d="m 490.95,917.848 c 0.81,-2.202 1.485,-4.037 2.237,-6.083 3.741,-0.219 7.535,-0.452 11.331,-0.658 2.381,-0.129 4.765,-0.306 7.147,-0.294 2.124,0.01 2.613,0.907 1.811,2.915 -0.847,2.119 -1.891,2.651 -4.764,2.45 -3.72,-0.26 -7.409,-0.226 -11.08,0.645 -2.056,0.487 -4.189,0.654 -6.682,1.025 z m 2.451,-1.929 c 6.185,-0.455 12.331,-0.907 18.669,-1.372 -0.089,-0.912 -0.153,-1.571 -0.21,-2.159 -2.599,-0.594 -4.973,-0.045 -7.314,-0.108 -2.825,-0.076 -5.507,0.603 -8.27,0.726 -1.928,0.085 -2.33,0.616 -2.875,2.913 z"
         id="path1173" />
      <path
         d="m 412.636,916.629 c -0.553,1.024 -0.852,2.411 -1.705,3.014 -3.715,2.627 -7.033,2.793 -9.649,-1.627 -1.03,-1.74 0.494,-4.941 2.669,-5.921 3.278,-1.476 5.55,-0.954 7.751,1.95 0.489,0.646 0.589,1.588 0.934,2.584 z m -1.469,-0.687 c -0.525,-0.397 -1.095,-0.757 -1.575,-1.211 -0.596,-0.565 -1.015,-1.489 -1.7,-1.741 -0.745,-0.274 -1.747,-0.095 -2.571,0.131 -2.585,0.708 -3.303,3.715 -1.375,5.53 2.477,2.332 6.256,0.922 7.221,-2.709 z"
         id="path1175" />
      <path
         d="m 431.009,904.28 c 1.214,-4.233 2.351,-8.197 3.412,-11.896 3.89,0.851 7.676,1.682 11.464,2.507 0.621,0.135 1.253,0.22 1.87,0.369 2.769,0.669 5.526,1.387 8.305,2.012 0.871,0.196 1.314,0.604 1.146,1.461 -0.167,0.851 -0.388,1.708 -0.721,2.505 -1.104,2.639 -2.315,5.234 -3.397,7.882 -0.767,1.877 -0.827,1.966 -2.786,1.348 -3.246,-1.026 -6.494,-2.048 -9.735,-3.091 -0.45,-0.145 -0.851,-0.44 -1.299,-0.597 -1.483,-0.52 -2.967,-1.043 -4.471,-1.5 -1.272,-0.387 -2.57,-0.682 -3.788,-1 z m 4.194,-10.208 c -0.755,2.614 -1.484,4.961 -2.102,7.337 -0.448,1.719 -0.189,2.047 1.528,2.497 1.382,0.362 2.934,0.443 4.11,1.15 2.51,1.51 5.341,2.023 8.018,2.984 1.521,0.546 3.2,0.654 4.718,0.943 2.876,-4.793 4.208,-8.408 3.805,-10.215 -3.213,-1 -6.392,-2.184 -9.667,-2.954 -3.292,-0.773 -6.681,-1.136 -10.41,-1.742 z"
         id="path1177" />
      <path
         d="m 457.509,929.682 c -4.772,-0.756 -9.303,-1.474 -14.003,-2.219 0.153,-0.463 0.302,-1.147 0.598,-1.76 0.649,-1.345 1.244,-1.562 2.692,-1.256 3.111,0.658 6.224,1.305 9.346,1.91 2.116,0.41 2.126,0.375 1.68,2.354 -0.069,0.3 -0.189,0.589 -0.313,0.971 z m -2.08,-1.235 c -2.012,-1.676 -6.742,-2.588 -9.41,-1.941 3.482,0.718 6.446,1.33 9.41,1.941 z"
         id="path1179" />
      <path
         fill="#b0b0af"
         d="m 477.009,956.849 c 2.022,-2.56 4.742,-3.615 7.308,-4.795 2.523,-1.16 5.155,-2.21 7.849,-2.835 2.277,-0.528 4.644,-0.082 6.715,1.215 -0.235,1.521 -1.348,2.022 -2.29,2.469 -2.079,0.988 -4.21,1.912 -6.401,2.608 -2.499,0.795 -5.073,1.376 -7.64,1.931 -1.783,0.385 -3.606,0.545 -5.541,-0.593 z"
         id="path1181" />
      <path
         fill="#cfc555"
         d="m 493.401,915.919 c 0.545,-2.297 0.947,-2.828 2.875,-2.914 2.764,-0.123 5.446,-0.802 8.27,-0.726 2.341,0.063 4.714,-0.486 7.314,0.108 0.057,0.589 0.121,1.247 0.21,2.159 -6.338,0.467 -12.484,0.919 -18.669,1.373 z"
         id="path1183" />
      <path
         fill="#e68b6a"
         d="m 411.167,915.942 c -0.966,3.631 -4.744,5.041 -7.221,2.709 -1.927,-1.815 -1.21,-4.822 1.375,-5.53 0.823,-0.225 1.825,-0.405 2.571,-0.131 0.685,0.252 1.104,1.177 1.7,1.741 0.48,0.454 1.05,0.813 1.575,1.211 z"
         id="path1185" />
      <path
         fill="#ffa1fc"
         d="m 435.203,894.072 c 3.73,0.605 7.118,0.968 10.41,1.743 3.275,0.77 6.454,1.954 9.667,2.954 0.403,1.807 -0.929,5.422 -3.805,10.215 -1.518,-0.288 -3.196,-0.397 -4.718,-0.943 -2.678,-0.961 -5.508,-1.474 -8.018,-2.984 -1.175,-0.707 -2.728,-0.788 -4.11,-1.15 -1.717,-0.45 -1.975,-0.777 -1.528,-2.497 0.618,-2.376 1.347,-4.723 2.102,-7.338 z"
         id="path1187" />
      <path
         fill="#91ccff"
         d="m 455.429,928.447 c -2.964,-0.611 -5.928,-1.223 -9.41,-1.941 2.668,-0.647 7.397,0.266 9.41,1.941 z"
         id="path1189" />
    </g>
  </g>
</svg>
